<svg xmlns="http://www.w3.org/2000/svg" viewBox="0 0 227.77 82.56"><defs><style>.cls-1{fill:#fdbd15;}.cls-2{fill:#fff;}</style></defs><title>Spark SC Logo</title><g id="Layer_2" data-name="Layer 2"><g id="Layer_1-2" data-name="Layer 1"><path class="cls-1" d="M22.56,54.21a1.51,1.51,0,0,0,1.49.2l20.58-9.8c.44-.21.41-.46-.07-.57L.43,34.85c-.48-.1-.57.08-.19.4Z"/><path class="cls-1" d="M22.51,31.94a1.62,1.62,0,0,0,1,1.29l23.1,8.38c.5.18.67,0,.38-.48L20.64.29c-.29-.45-.49-.38-.45.15Z"/><path class="cls-1" d="M43.23,69.1a1.41,1.41,0,0,0,1-1L48.57,49c.1-.45-.1-.57-.46-.28l-29.81,25c-.35.3-.27.46.18.37Z"/><path class="cls-2" d="M29.19,27.42l-5.8,2.9a4.67,4.67,0,0,0-1-1.45,6.43,6.43,0,0,0-1.36-1,5.5,5.5,0,0,0-1.5-.55,7.15,7.15,0,0,0-1.4-.16,9.07,9.07,0,0,0-1.38.11,3.75,3.75,0,0,0-1.27.43,2.46,2.46,0,0,0-.93.93,3,3,0,0,0-.37,1.56,3.24,3.24,0,0,0,.45,1.51,3.41,3.41,0,0,0,1.5,1.38l.36.2.36.21,1.91,1q1,.5,1.9,1c.15.09.34.19.56.29a5.8,5.8,0,0,1,.57.29l.91.43c.33.17.62.33.86.47a10.48,10.48,0,0,1,2.31,1.77,7.7,7.7,0,0,1,1.4,2,9,9,0,0,1,.7,2.18,12.11,12.11,0,0,1,.2,2.2,9.69,9.69,0,0,1-.32,2.52,7.08,7.08,0,0,1-1,2.25,8.74,8.74,0,0,1-1.92,1.95,12.2,12.2,0,0,1-3,1.59c-.27.09-.59.18-1,.27a9.37,9.37,0,0,1-1.14.2l-1.2.11c-.41,0-.76,0-1.07,0l-.88,0L16,54a5.56,5.56,0,0,1-.56-.07,14,14,0,0,1-2.25-.5,12.08,12.08,0,0,1-2.38-1,11.79,11.79,0,0,1-2.24-1.63,9.41,9.41,0,0,1-1.84-2.33l-.29-.52c-.1-.2-.2-.38-.29-.57L11.8,44.5h.13a4.69,4.69,0,0,0,1,1.45,5.82,5.82,0,0,0,1.36,1,6.26,6.26,0,0,0,1.47.52,6.7,6.7,0,0,0,1.38.16,8.66,8.66,0,0,0,1.43-.12A3.69,3.69,0,0,0,19.88,47a2.55,2.55,0,0,0,.93-.9,2.94,2.94,0,0,0,.36-1.54q0-1.95-2.67-3.31a5,5,0,0,1-.59-.29l-1-.54-1.15-.61-1.07-.54L14.2,39a4.53,4.53,0,0,0-.59-.25l-.88-.47-.93-.48a9.09,9.09,0,0,1-2.31-1.74,8.43,8.43,0,0,1-1.43-2,8.3,8.3,0,0,1-.73-2.18,12.09,12.09,0,0,1-.2-2.2c0-.06,0-.32,0-.77a9.9,9.9,0,0,1,.14-1.18,3.72,3.72,0,0,0,.09-.39,2.47,2.47,0,0,1,.13-.47l.25-.59c.11-.24.22-.46.34-.68a6.32,6.32,0,0,1,1-1.43A11.31,11.31,0,0,1,10.52,23,12.51,12.51,0,0,1,12,22a9.12,9.12,0,0,1,1.43-.63,11.79,11.79,0,0,1,2.18-.52,15.39,15.39,0,0,1,2.18-.16l.84.07.7,0,.59,0a14,14,0,0,1,2.24.5,11.33,11.33,0,0,1,2.38,1A12.82,12.82,0,0,1,26.77,24a9.75,9.75,0,0,1,1.83,2.29,4.85,4.85,0,0,0,.27.54Z"/><path class="cls-2" d="M61.27,31.95a11.46,11.46,0,0,1-.63,3.83A11.18,11.18,0,0,1,58.87,39a11.49,11.49,0,0,1-2.63,2.43A10.64,10.64,0,0,1,53,42.87l-1.18.27a6.08,6.08,0,0,1-1.31.18H45.1V54.06H38.26V20.58H50.44a4.92,4.92,0,0,1,.77.07c.3,0,.61.1.93.18l.88.22.59.16a15.21,15.21,0,0,1,2.45,1.18,10.45,10.45,0,0,1,2.31,2,9,9,0,0,1,1.47,2.11,18.79,18.79,0,0,1,1,2.24,10.7,10.7,0,0,1,.34,1.59A12.05,12.05,0,0,1,61.27,31.95Zm-6.75,0a4.62,4.62,0,0,0-.2-1.3,4.53,4.53,0,0,0-.63-1.29,4.81,4.81,0,0,0-1.07-1.08,4.25,4.25,0,0,0-1.5-.7,3.38,3.38,0,0,0-.61-.13l-.38,0h-5v9.16h5a3.17,3.17,0,0,0,.45-.07l.54-.11a4.09,4.09,0,0,0,2.56-1.8A5,5,0,0,0,54.52,31.92Z"/><path class="cls-2" d="M91.7,54.1H84.13l-2.45-5.16H70.18L67.73,54.1H60.21L76,20.58Z"/><path class="cls-2" d="M119.72,54.1h-7.45l-5.77-12.82h-3.59V54.06H96.07V20.58h12.19a4.27,4.27,0,0,1,.7.07c.29,0,.59.1.91.18l.88.22c.27.08.48.14.63.2a17.69,17.69,0,0,1,2,1,9,9,0,0,1,1.94,1.63,10.1,10.1,0,0,1,1.71,2.45,9.71,9.71,0,0,1,.84,2.49,9.83,9.83,0,0,1,.23,2.08,11.06,11.06,0,0,1-1.07,4.57,10.21,10.21,0,0,1-3.75,4.17ZM111.3,30.93a4.1,4.1,0,0,0-.48-1.85,3.36,3.36,0,0,0-2.31-1.64l-.43-.07h-5.17v7.12h5.17a2.28,2.28,0,0,0,.43-.09,4.45,4.45,0,0,0,.56-.18,3.09,3.09,0,0,0,1.74-1.44A4.1,4.1,0,0,0,111.3,30.93Z"/><path class="cls-2" d="M155.29,20.62,140.16,37.39l15.09,16.67h-9.2L135.58,42.51V54.06h-6.84V20.62h6.84V32.26L146.1,20.62Z"/><path class="cls-2" d="M201.15,27.42l-5.8,2.9a4.69,4.69,0,0,0-1-1.45,6.44,6.44,0,0,0-1.36-1,5.52,5.52,0,0,0-1.5-.55,7.17,7.17,0,0,0-1.4-.16,9.08,9.08,0,0,0-1.38.11,3.75,3.75,0,0,0-1.27.43,2.45,2.45,0,0,0-.93.93,3,3,0,0,0-.37,1.56,3.25,3.25,0,0,0,.45,1.51,3.42,3.42,0,0,0,1.5,1.38l.36.2.36.21,1.91,1q1,.5,1.9,1c.15.09.34.19.56.29a5.8,5.8,0,0,1,.57.29l.91.43c.33.17.62.33.86.47a10.51,10.51,0,0,1,2.31,1.77,7.7,7.7,0,0,1,1.4,2,9.06,9.06,0,0,1,.7,2.18,12.19,12.19,0,0,1,.2,2.2,9.7,9.7,0,0,1-.32,2.52,7.12,7.12,0,0,1-1,2.25,8.74,8.74,0,0,1-1.92,1.95,12.2,12.2,0,0,1-3,1.59c-.27.09-.59.18-1,.27a9.34,9.34,0,0,1-1.14.2l-1.2.11c-.41,0-.76,0-1.07,0l-.88,0-.68,0a5.55,5.55,0,0,1-.56-.07,13.94,13.94,0,0,1-2.25-.5,12.08,12.08,0,0,1-2.38-1,11.81,11.81,0,0,1-2.24-1.63,9.42,9.42,0,0,1-1.84-2.33l-.29-.52c-.1-.2-.2-.38-.29-.57l5.66-2.85h.13a4.67,4.67,0,0,0,1,1.45,5.81,5.81,0,0,0,1.36,1,6.26,6.26,0,0,0,1.47.52,6.7,6.7,0,0,0,1.38.16,8.65,8.65,0,0,0,1.43-.12,3.69,3.69,0,0,0,1.27-.43,2.56,2.56,0,0,0,.93-.9,2.94,2.94,0,0,0,.36-1.54q0-1.95-2.67-3.31a5.08,5.08,0,0,1-.59-.29l-1-.54-1.15-.61-1.07-.54-.5-.25a4.52,4.52,0,0,0-.59-.25l-.88-.47-.93-.48a9.08,9.08,0,0,1-2.31-1.74,8.38,8.38,0,0,1-1.43-2,8.25,8.25,0,0,1-.73-2.18,12.06,12.06,0,0,1-.2-2.2c0-.06,0-.32,0-.77a10.1,10.1,0,0,1,.14-1.18,3.87,3.87,0,0,0,.09-.39,2.58,2.58,0,0,1,.13-.47l.25-.59c.11-.24.22-.46.34-.68a6.33,6.33,0,0,1,1-1.43,11.32,11.32,0,0,1,1.36-1.2A12.55,12.55,0,0,1,184,22a9.12,9.12,0,0,1,1.43-.63,11.8,11.8,0,0,1,2.18-.52,15.39,15.39,0,0,1,2.17-.16l.84.07.7,0,.59,0a14,14,0,0,1,2.24.5,11.31,11.31,0,0,1,2.38,1A12.84,12.84,0,0,1,198.73,24a9.76,9.76,0,0,1,1.83,2.29,4.85,4.85,0,0,0,.27.54Z"/><path class="cls-2" d="M227.77,54.06h-5.89l-.41,0-.54-.09-1.58-.27a8.18,8.18,0,0,1-1.68-.5A17.06,17.06,0,0,1,209,46.31a15.69,15.69,0,0,1-2-4.44,17.78,17.78,0,0,1-.61-4.53c0-.3,0-.84.09-1.61a16.16,16.16,0,0,1,.32-2.2,17.83,17.83,0,0,1,2.63-5.69,19.23,19.23,0,0,1,2.31-2.72,14.85,14.85,0,0,1,2.94-2.24,13.88,13.88,0,0,1,4.44-1.77,2.25,2.25,0,0,0,.43-.09l.77-.2a8,8,0,0,1,.86-.18,4.28,4.28,0,0,1,.7-.07h5.84v6.79h-5.53a4,4,0,0,0-.54.12c-.3.08-.55.13-.73.16a5.61,5.61,0,0,0-1.79.57,11.4,11.4,0,0,0-1.93,1.2A11.8,11.8,0,0,0,215.52,31a7,7,0,0,0-1.2,1.86,5.51,5.51,0,0,1-.25.52,3.66,3.66,0,0,0-.25.56,9.19,9.19,0,0,0-.45,1.75,11.88,11.88,0,0,0-.09,1.56,11.12,11.12,0,0,0,.32,2.56,9.13,9.13,0,0,0,1,2.56,10.22,10.22,0,0,0,1.88,2.29,9.88,9.88,0,0,0,2.83,1.79,4.69,4.69,0,0,0,.59.22c.27.09.55.18.84.25l.84.2a3.12,3.12,0,0,0,.68.09h5.48Z"/><path class="cls-1" d="M63.84,65.4a1.25,1.25,0,0,0-.18-1.23l-9.5-10.79c-.27-.31-.47-.22-.44.18l2.08,28.68c0,.41.19.44.36.06Z"/><path class="cls-1" d="M75.92,56.59a1.39,1.39,0,0,0-1.1-.84l-11.45-.89c-.45,0-.54.18-.21.48L80.62,70.89c.34.3.49.2.34-.23Z"/><path class="cls-1" d="M79.86,46.67a1.25,1.25,0,0,0-1.23.19l-6.18,5.47c-.31.27-.22.46.18.44l17-1.28c.41,0,.43-.19.06-.36Z"/><path class="cls-1" d="M76.4,40.78a1.25,1.25,0,0,0-1,.71l-2,5c-.15.38,0,.52.36.31l10-5.92c.35-.21.3-.37-.1-.35Z"/></g></g></svg>
